<?xml version="1.0" encoding="UTF-8"?>
<!-- Created with Inkscape (http://www.inkscape.org/) -->
<svg width="757.54" height="825.82" version="1.1" viewBox="0 0 757.54 825.82" xmlns="http://www.w3.org/2000/svg">
 <g transform="translate(-52.108 -19.74)">
  <path d="m133.98 811.81 13.125 28.958h15.625l-55.417-120.62-55.208 120.62h15.625l13.125-28.958zm-6.0417-13.333h-41.042l20.417-46.667z"/>
  <path d="m235.06 792.23h8.3333c22.083 0 40.625-9.375 40.625-33.75 0-21.25-11.042-33.542-46.667-33.542h-16.667v115.83h14.375zm0-54.375h3.9583c14.167 0 31.458 2.2917 31.458 20.208 0 18.542-16.042 21.25-30.833 21.25h-4.5833z"/>
  <path d="m359.41 792.23h8.3333c22.083 0 40.625-9.375 40.625-33.75 0-21.25-11.042-33.542-46.667-33.542h-16.667v115.83h14.375zm0-54.375h3.9583c14.167 0 31.458 2.2917 31.458 20.208 0 18.542-16.042 21.25-30.833 21.25h-4.5833z"/>
  <path d="m483.34 724.94h-14.375v115.83h14.375z"/>
  <path d="m622.94 811.81 13.125 28.958h15.625l-55.417-120.62-55.208 120.62h15.625l13.125-28.958zm-6.0417-13.333h-41.042l20.417-46.667z"/>
  <path d="m708.19 840.77h14.583v-86.25l86.875 91.042v-120.62h-14.375v85.625l-87.083-91.042z"/>
  <path d="m427.71 19.74h31.927l275.36 580.16s9.8438 19.687 51.615 19.687v27.031h-304.84v-27.031h49.167s34.427-7.3437 33.594-24.583l-197.5-422.03 60.677-153.23"/>
  <path d="m135.94 588.44s-27.031-7.3438-12.24 14.74c0 0 44.219 59.01 86.042 54.115 0 0 36.823-12.292 19.635-46.719 0 0-44.219-51.615-36.875-61.458 7.3958-9.8438 95.885 81.146 113.07 83.594 17.24 2.4479 41.823-2.4479 24.583-41.823 0 0-2.4479-12.292 8.2292 1.6667 10.625 13.958 45.052 61.458 81.094 50.781 0 0 28.698-18.021-13.073-77.031 0 0-3.2812-12.292 15.573 11.51 0 0 31.146 46.719 58.177 22.917 0 0 18.854-9.0104-1.6667-56.51 0 0-9.0104-30.365 36.875 39.323 0 0 13.125 23.75 42.604 12.292 0 0 23.802-17.24-39.323-113.07 0 0-1.6146-9.8438 7.3958 2.4479l120.47 140.1s51.615 29.531 45.052-25.417c0 0-127.86-271.2-306.46-425.26 0 0-39.375-16.406-22.969 24.583 0 0 139.32 139.32 222.92 286.82 0 0 0 4.8958-6.5625 1.6146 0 0-172.92-216.35-221.25-240.94 0 0-37.708-10.625-28.698 30.365 0 0 79.479 89.323 108.18 139.27 0 0 8.1771 13.125-5.7292 2.4479 0 0-69.688-80.26-108.18-109.79 0 0-53.281-30.312-26.25 27.031 0 0 118.02 159.01 114.74 162.29 0 0 5.7292 10.625-7.3958 0.7812 0 0-66.354-77.031-113.91-117.97 0 0-53.229-27.865-34.375 27.812 0 0 105.68 134.43 104.9 149.17 0 0 7.3437 11.51-7.3958 1.6667 0 0-54.062-59.844-109.01-102.45 0 0-50.781-33.594-33.594 19.688 0 0 32.812 54.896 59.844 79.479 0 0 6.5625 11.458-4.9479 1.6146 0 0-64.687-55.729-86.823-68.802 0 0-41.823-9.8438-39.323 22.917 0 0 10.625 51.615 49.948 98.333 0 0 4.9479 14.74-12.292 2.4479 0 0-28.698-21.302-40.99-24.583" fill="#6e7ac5"/>
  <path d="m135.94 588.44s-27.031-7.3437-12.24 14.74c0 0 44.219 59.01 86.042 54.115 0 0 36.823-12.292 19.635-46.719 0 0-44.219-51.615-36.875-61.458 7.3958-9.8439 95.885 81.146 113.07 83.594 17.24 2.4479 41.823-2.448 24.583-41.823 0 0-2.4479-12.292 8.2292 1.6667 10.625 13.958 45.052 61.458 81.094 50.781 0 0 28.698-18.021-13.073-77.031 0 0-3.2812-12.292 15.573 11.51 0 0 31.146 46.719 58.177 22.917 0 0 18.854-9.0104-1.6667-56.51 0 0-9.0104-30.365 36.875 39.323 0 0 13.125 23.75 42.604 12.292 0 0 23.802-17.24-39.323-113.07 0 0-1.6146-9.8437 7.3958 2.448l120.47 140.1s51.615 29.531 45.052-25.417c0 0-127.86-271.2-306.46-425.26 0 0-39.375-16.406-22.969 24.583 0 0 139.32 139.32 222.92 286.82 0 0 0 4.8957-6.5625 1.6145 0 0-172.92-216.35-221.25-240.94 0 0-37.708-10.625-28.698 30.365 0 0 79.479 89.323 108.18 139.27 0 0 8.1771 13.125-5.7292 2.448 0 0-69.688-80.26-108.18-109.79 0 0-53.281-30.312-26.25 27.031 0 0 118.02 159.01 114.74 162.29 0 0 5.7292 10.625-7.3958 0.7813 0 0-66.354-77.031-113.91-117.97 0 0-53.229-27.865-34.375 27.813 0 0 105.68 134.43 104.9 149.17 0 0 7.3437 11.51-7.3958 1.6667 0 0-54.062-59.844-109.01-102.45 0 0-50.781-33.594-33.594 19.688 0 0 32.812 54.896 59.844 79.479 0 0 6.5625 11.458-4.9479 1.6147 0 0-64.687-55.729-86.823-68.802 0 0-41.823-9.8437-39.323 22.917 0 0 10.625 51.615 49.948 98.333 0 0 4.9479 14.74-12.292 2.4479 0 0-28.698-21.302-40.99-24.583z" fill="none" stroke="#6e7ac5" stroke-width="9.84"/>
 </g>
</svg>
